<svg id="svg" version="1.1" xmlns="http://www.w3.org/2000/svg" xmlns:xlink="http://www.w3.org/1999/xlink" width="400" height="400" viewBox="0, 0, 400,400"><g id="svgg"><path id="path0" d="M178.800 8.800 C 178.470 9.013,176.996 9.191,175.524 9.194 C 174.052 9.197,172.736 9.380,172.600 9.600 C 172.464 9.820,171.294 10.000,170.000 10.000 C 168.706 10.000,167.536 10.180,167.400 10.400 C 167.264 10.620,166.094 10.800,164.800 10.800 C 163.506 10.800,162.336 10.980,162.200 11.200 C 162.064 11.420,161.254 11.600,160.400 11.600 C 159.546 11.600,158.736 11.780,158.600 12.000 C 158.464 12.220,157.834 12.400,157.200 12.400 C 156.566 12.400,155.936 12.580,155.800 12.800 C 155.664 13.020,155.034 13.200,154.400 13.200 C 153.766 13.200,153.136 13.380,153.000 13.600 C 152.864 13.820,152.259 14.000,151.656 14.000 C 151.053 14.000,150.385 14.175,150.171 14.389 C 149.958 14.602,149.386 14.838,148.902 14.912 C 148.417 14.986,147.896 15.171,147.744 15.323 C 147.591 15.475,146.967 15.600,146.357 15.600 C 145.747 15.600,145.136 15.780,145.000 16.000 C 144.864 16.220,144.420 16.400,144.014 16.400 C 143.608 16.400,142.539 16.760,141.638 17.200 C 140.737 17.640,139.263 18.360,138.362 18.800 C 137.461 19.240,136.471 19.600,136.162 19.600 C 135.853 19.600,135.600 19.780,135.600 20.000 C 135.600 20.220,135.328 20.400,134.995 20.400 C 134.662 20.400,134.077 20.564,133.695 20.765 C 133.313 20.965,131.600 21.794,129.888 22.605 C 128.176 23.417,126.556 24.294,126.288 24.554 C 126.020 24.814,124.764 25.530,123.498 26.144 C 122.232 26.758,120.965 27.472,120.681 27.730 C 120.014 28.339,118.854 29.080,117.600 29.700 C 117.050 29.972,116.251 30.511,115.825 30.897 C 115.398 31.284,114.813 31.600,114.525 31.600 C 114.236 31.600,114.000 31.780,114.000 32.000 C 114.000 32.220,113.768 32.400,113.484 32.400 C 113.200 32.400,112.172 33.120,111.200 34.000 C 110.228 34.880,109.200 35.600,108.916 35.600 C 108.632 35.600,108.400 35.780,108.400 36.000 C 108.400 36.220,108.175 36.402,107.900 36.404 C 107.625 36.406,106.457 37.306,105.305 38.404 C 104.152 39.502,103.059 40.400,102.875 40.400 C 102.692 40.400,101.565 41.346,100.371 42.502 C 96.700 46.056,93.448 48.400,92.188 48.400 C 91.901 48.400,91.607 48.535,91.533 48.700 C 91.366 49.076,89.236 50.375,88.300 50.671 C 87.915 50.793,87.600 51.052,87.600 51.247 C 87.600 51.441,87.375 51.600,87.100 51.600 C 86.825 51.601,86.060 52.066,85.400 52.635 C 84.740 53.204,83.705 53.963,83.100 54.321 C 82.495 54.679,82.000 55.114,82.000 55.286 C 82.000 55.459,81.764 55.600,81.475 55.600 C 81.187 55.600,80.602 55.920,80.175 56.311 C 79.749 56.702,78.770 57.460,78.000 57.995 C 77.230 58.531,76.123 59.471,75.540 60.085 C 74.956 60.698,74.297 61.200,74.074 61.200 C 73.852 61.200,72.573 62.280,71.232 63.600 C 69.892 64.920,68.640 66.000,68.450 66.000 C 67.811 66.000,53.043 80.942,50.637 84.023 C 50.217 84.560,49.317 85.647,48.637 86.437 C 46.612 88.790,46.000 89.593,45.994 89.905 C 45.990 90.067,45.090 91.181,43.994 92.379 C 42.897 93.578,42.000 94.793,42.000 95.079 C 42.000 95.366,41.850 95.600,41.668 95.600 C 41.485 95.600,41.080 96.095,40.768 96.700 C 40.455 97.305,39.885 98.149,39.500 98.575 C 39.115 99.002,38.800 99.572,38.800 99.842 C 38.800 100.112,38.655 100.393,38.477 100.467 C 38.103 100.621,35.600 104.217,35.600 104.600 C 35.600 104.741,35.060 105.641,34.400 106.600 C 33.740 107.559,33.200 108.537,33.200 108.772 C 33.200 109.007,33.065 109.201,32.900 109.203 C 32.735 109.205,32.399 109.610,32.154 110.103 C 30.954 112.519,28.982 116.222,28.802 116.400 C 28.342 116.855,26.800 120.118,26.800 120.638 C 26.800 120.947,26.620 121.200,26.400 121.200 C 26.180 121.200,26.001 121.425,26.003 121.700 C 26.005 121.975,25.264 123.730,24.355 125.600 C 23.447 127.470,22.525 129.450,22.305 130.000 C 22.086 130.550,21.748 131.313,21.553 131.695 C 21.359 132.077,21.200 132.664,21.200 133.000 C 21.200 133.336,21.041 133.923,20.847 134.305 C 20.497 134.992,19.927 136.351,19.254 138.100 C 18.676 139.601,17.927 141.360,17.553 142.095 C 17.359 142.477,17.200 143.141,17.200 143.571 C 17.200 144.001,17.020 144.464,16.800 144.600 C 16.580 144.736,16.400 145.366,16.400 146.000 C 16.400 146.634,16.220 147.264,16.000 147.400 C 15.780 147.536,15.600 148.256,15.600 149.000 C 15.600 149.744,15.420 150.464,15.200 150.600 C 14.980 150.736,14.800 151.366,14.800 152.000 C 14.800 152.634,14.620 153.264,14.400 153.400 C 14.180 153.536,14.000 154.166,14.000 154.800 C 14.000 155.434,13.820 156.064,13.600 156.200 C 13.380 156.336,13.200 157.056,13.200 157.800 C 13.200 158.544,13.020 159.264,12.800 159.400 C 12.580 159.536,12.400 160.256,12.400 161.000 C 12.400 161.744,12.220 162.464,12.000 162.600 C 11.780 162.736,11.600 163.636,11.600 164.600 C 11.600 165.564,11.420 166.464,11.200 166.600 C 10.980 166.736,10.800 167.906,10.800 169.200 C 10.800 170.494,10.620 171.664,10.400 171.800 C 10.180 171.936,10.000 173.016,10.000 174.200 C 10.000 175.384,9.820 176.464,9.600 176.600 C 9.380 176.736,9.200 178.061,9.200 179.544 C 9.200 181.027,9.031 182.411,8.825 182.620 C 8.026 183.431,7.235 215.127,7.978 216.600 C 8.200 217.040,8.465 219.290,8.567 221.600 C 8.670 223.910,8.948 227.330,9.185 229.200 C 9.422 231.070,9.719 233.590,9.843 234.800 C 9.968 236.010,10.235 237.171,10.435 237.380 C 10.636 237.589,10.800 238.883,10.800 240.256 C 10.800 241.629,10.980 242.864,11.200 243.000 C 11.420 243.136,11.600 244.126,11.600 245.200 C 11.600 246.274,11.780 247.264,12.000 247.400 C 12.220 247.536,12.400 248.256,12.400 249.000 C 12.400 249.744,12.580 250.464,12.800 250.600 C 13.020 250.736,13.200 251.431,13.200 252.144 C 13.200 252.857,13.374 253.614,13.587 253.827 C 13.799 254.039,14.018 254.809,14.074 255.537 C 14.129 256.265,14.315 256.948,14.487 257.054 C 14.659 257.160,14.800 257.766,14.800 258.400 C 14.800 259.034,14.980 259.664,15.200 259.800 C 15.420 259.936,15.600 260.746,15.600 261.600 C 15.600 262.454,15.780 263.264,16.000 263.400 C 16.220 263.536,16.400 264.076,16.400 264.600 C 16.400 265.124,16.580 265.664,16.800 265.800 C 17.020 265.936,17.200 266.476,17.200 267.000 C 17.200 267.524,17.380 268.064,17.600 268.200 C 17.820 268.336,18.000 268.876,18.000 269.400 C 18.000 269.924,18.180 270.464,18.400 270.600 C 18.620 270.736,18.804 271.242,18.809 271.724 C 18.814 272.206,19.170 273.050,19.600 273.600 C 20.030 274.150,20.386 275.084,20.391 275.676 C 20.396 276.268,20.580 276.864,20.800 277.000 C 21.020 277.136,21.200 277.676,21.200 278.200 C 21.200 278.724,21.380 279.264,21.600 279.400 C 21.820 279.536,22.000 280.076,22.000 280.600 C 22.000 281.124,22.180 281.664,22.400 281.800 C 22.620 281.936,22.800 282.397,22.800 282.824 C 22.800 283.251,22.980 283.600,23.200 283.600 C 23.420 283.600,23.600 283.872,23.600 284.205 C 23.600 284.538,23.760 285.123,23.956 285.505 C 24.436 286.440,26.006 289.960,26.497 291.200 C 26.867 292.134,27.030 292.479,27.956 294.300 C 28.152 294.685,28.720 295.855,29.219 296.900 C 29.718 297.945,30.277 298.800,30.463 298.800 C 30.648 298.800,30.800 299.155,30.800 299.588 C 30.800 300.496,32.126 303.018,33.239 304.226 C 33.658 304.680,34.000 305.282,34.000 305.564 C 34.000 305.846,34.332 306.554,34.737 307.138 C 35.143 307.722,35.727 308.785,36.035 309.500 C 36.343 310.215,36.731 310.800,36.898 310.800 C 37.064 310.800,37.200 311.025,37.200 311.300 C 37.201 311.575,37.666 312.340,38.235 313.000 C 38.804 313.660,39.563 314.695,39.921 315.300 C 40.279 315.905,40.714 316.400,40.886 316.400 C 41.059 316.400,41.200 316.760,41.200 317.200 C 41.200 317.640,41.338 318.000,41.506 318.000 C 41.674 318.000,42.256 318.720,42.800 319.600 C 43.344 320.480,43.884 321.200,44.000 321.200 C 44.116 321.200,44.656 321.920,45.200 322.800 C 45.744 323.680,46.326 324.400,46.494 324.400 C 46.662 324.400,46.800 324.640,46.800 324.934 C 46.800 325.228,48.060 326.800,49.600 328.428 C 51.140 330.056,52.400 331.543,52.400 331.733 C 52.400 332.301,68.882 348.400,69.463 348.400 C 69.759 348.400,70.000 348.580,70.000 348.800 C 70.000 349.020,70.191 349.200,70.426 349.200 C 70.660 349.200,71.335 349.652,71.926 350.205 C 74.408 352.526,76.177 354.000,76.482 354.000 C 76.661 354.000,77.372 354.540,78.063 355.200 C 78.754 355.860,79.479 356.400,79.676 356.400 C 79.873 356.400,80.410 356.750,80.869 357.179 C 81.329 357.607,82.654 358.422,83.814 358.989 C 84.974 359.557,86.024 360.286,86.149 360.610 C 86.273 360.935,86.651 361.200,86.987 361.200 C 87.324 361.200,87.600 361.350,87.600 361.532 C 87.600 361.715,88.095 362.120,88.700 362.432 C 89.305 362.744,89.890 363.089,90.000 363.199 C 90.110 363.310,90.920 363.774,91.800 364.230 C 93.869 365.304,95.348 366.148,95.600 366.400 C 95.887 366.687,97.559 367.623,99.300 368.470 C 100.125 368.871,101.565 369.586,102.500 370.057 C 107.057 372.354,109.069 373.331,109.800 373.599 C 111.002 374.041,112.912 374.849,113.695 375.247 C 114.077 375.441,114.707 375.604,115.095 375.609 C 115.483 375.614,116.250 375.970,116.800 376.400 C 117.350 376.830,118.027 377.186,118.305 377.191 C 118.583 377.196,119.168 377.380,119.605 377.600 C 120.042 377.820,120.758 378.180,121.195 378.400 C 121.632 378.620,122.515 378.800,123.157 378.800 C 124.169 378.800,125.246 379.214,128.495 380.850 C 128.877 381.043,129.541 381.200,129.971 381.200 C 130.401 381.200,130.864 381.380,131.000 381.600 C 131.136 381.820,131.676 382.000,132.200 382.000 C 132.724 382.000,133.264 382.180,133.400 382.400 C 133.536 382.620,134.166 382.800,134.800 382.800 C 135.434 382.800,136.064 382.980,136.200 383.200 C 136.336 383.420,136.966 383.600,137.600 383.600 C 138.234 383.600,138.864 383.780,139.000 384.000 C 139.136 384.220,140.036 384.400,141.000 384.400 C 141.964 384.400,142.864 384.580,143.000 384.800 C 143.136 385.020,143.856 385.200,144.600 385.200 C 145.344 385.200,146.064 385.380,146.200 385.600 C 146.336 385.820,147.056 386.000,147.800 386.000 C 148.544 386.000,149.264 386.180,149.400 386.400 C 149.536 386.620,150.346 386.800,151.200 386.800 C 152.054 386.800,152.864 386.980,153.000 387.200 C 153.136 387.420,154.036 387.600,155.000 387.600 C 155.964 387.600,156.864 387.780,157.000 388.000 C 157.136 388.220,158.306 388.400,159.600 388.400 C 160.894 388.400,162.064 388.580,162.200 388.800 C 162.336 389.020,163.956 389.200,165.800 389.200 C 167.644 389.200,169.264 389.380,169.400 389.600 C 169.536 389.821,171.330 390.000,173.400 390.000 C 175.470 390.000,177.264 390.179,177.400 390.400 C 177.724 390.924,213.288 390.950,213.820 390.427 C 214.029 390.221,215.910 389.953,218.000 389.832 C 227.085 389.303,229.022 389.122,229.380 388.772 C 229.589 388.567,230.793 388.400,232.056 388.400 C 233.319 388.400,234.464 388.220,234.600 388.000 C 234.736 387.780,235.726 387.600,236.800 387.600 C 237.874 387.600,238.864 387.420,239.000 387.200 C 239.136 386.980,240.036 386.800,241.000 386.800 C 241.964 386.800,242.864 386.620,243.000 386.400 C 243.136 386.180,243.856 386.000,244.600 386.000 C 245.344 386.000,246.064 385.820,246.200 385.600 C 246.336 385.380,247.056 385.200,247.800 385.200 C 248.544 385.200,249.264 385.020,249.400 384.800 C 249.536 384.580,250.346 384.400,251.200 384.400 C 252.054 384.400,252.864 384.220,253.000 384.000 C 253.136 383.780,253.856 383.600,254.600 383.600 C 255.344 383.600,256.064 383.420,256.200 383.200 C 256.336 382.980,256.966 382.800,257.600 382.800 C 258.234 382.800,258.864 382.620,259.000 382.400 C 259.136 382.180,259.766 382.000,260.400 382.000 C 261.034 382.000,261.664 381.820,261.800 381.600 C 261.936 381.380,262.399 381.200,262.829 381.200 C 263.584 381.200,263.974 381.056,265.895 380.062 C 266.387 379.808,267.141 379.600,267.571 379.600 C 268.001 379.600,268.464 379.420,268.600 379.200 C 268.736 378.980,269.366 378.800,270.000 378.800 C 270.634 378.800,271.264 378.620,271.400 378.400 C 271.536 378.180,271.999 378.000,272.429 378.000 C 272.859 378.000,273.523 377.841,273.905 377.647 C 274.287 377.452,275.050 377.118,275.600 376.903 C 276.150 376.689,277.382 376.128,278.338 375.657 C 279.294 375.186,280.329 374.800,280.638 374.800 C 280.947 374.800,281.200 374.620,281.200 374.400 C 281.200 374.180,281.562 374.000,282.005 374.000 C 282.448 374.000,283.123 373.841,283.505 373.647 C 283.887 373.452,284.650 373.114,285.200 372.894 C 285.750 372.674,288.090 371.572,290.400 370.444 C 292.710 369.317,294.825 368.396,295.100 368.397 C 295.375 368.399,295.600 368.220,295.600 368.000 C 295.600 367.780,295.960 367.600,296.400 367.600 C 296.840 367.600,297.200 367.463,297.200 367.295 C 297.200 366.966,297.329 366.891,301.453 364.823 C 302.964 364.066,304.290 363.346,304.400 363.223 C 304.510 363.100,304.960 362.803,305.400 362.562 C 307.602 361.358,308.241 360.951,308.796 360.397 C 309.128 360.066,309.940 359.532,310.600 359.212 C 311.260 358.892,312.855 357.856,314.145 356.911 C 315.434 355.966,317.009 354.885,317.645 354.510 C 318.280 354.135,318.800 353.686,318.800 353.514 C 318.800 353.341,319.036 353.200,319.325 353.200 C 319.613 353.200,320.198 352.885,320.625 352.500 C 321.052 352.115,322.060 351.308,322.866 350.706 C 323.671 350.104,324.571 349.378,324.865 349.093 C 325.159 348.807,326.030 348.132,326.800 347.593 C 327.570 347.053,328.847 345.934,329.638 345.106 C 330.429 344.278,331.239 343.601,331.438 343.603 C 331.637 343.605,332.722 342.660,333.850 341.503 C 334.977 340.346,337.452 337.886,339.350 336.035 C 341.247 334.185,342.800 332.526,342.800 332.349 C 342.800 332.173,343.160 331.835,343.600 331.600 C 344.040 331.365,344.400 330.999,344.400 330.789 C 344.400 330.578,345.480 329.308,346.800 327.968 C 348.120 326.627,349.200 325.360,349.200 325.152 C 349.200 324.944,349.785 324.175,350.500 323.443 C 351.215 322.712,352.601 320.994,353.579 319.627 C 354.558 318.259,355.773 316.658,356.279 316.070 C 356.785 315.481,357.199 314.775,357.200 314.500 C 357.200 314.225,357.350 314.000,357.532 314.000 C 357.715 314.000,358.120 313.505,358.432 312.900 C 358.745 312.295,359.315 311.451,359.700 311.025 C 360.085 310.598,360.400 310.096,360.400 309.908 C 360.400 309.720,360.760 309.180,361.200 308.708 C 361.640 308.236,362.000 307.613,362.000 307.325 C 362.000 307.036,362.153 306.800,362.340 306.800 C 362.527 306.800,363.289 305.585,364.032 304.100 C 364.776 302.615,365.477 301.310,365.592 301.200 C 365.983 300.824,367.249 298.601,367.471 297.900 C 367.593 297.515,367.852 297.200,368.047 297.200 C 368.241 297.200,368.399 296.975,368.398 296.700 C 368.396 296.425,369.497 293.950,370.844 291.200 C 372.191 288.450,373.430 285.840,373.596 285.400 C 373.762 284.960,374.304 283.700,374.800 282.600 C 375.296 281.500,375.840 280.240,376.010 279.800 C 376.180 279.360,376.643 278.280,377.040 277.400 C 377.437 276.520,377.827 275.350,377.906 274.800 C 377.985 274.250,378.218 273.629,378.425 273.420 C 378.631 273.211,378.800 272.624,378.800 272.115 C 378.800 271.606,378.959 270.877,379.153 270.495 C 379.529 269.757,380.135 268.318,380.625 267.000 C 380.789 266.560,380.996 265.750,381.086 265.200 C 381.176 264.650,381.418 264.029,381.625 263.820 C 381.831 263.611,382.000 263.037,382.000 262.544 C 382.000 262.051,382.180 261.536,382.400 261.400 C 382.620 261.264,382.800 260.634,382.800 260.000 C 382.800 259.366,382.980 258.736,383.200 258.600 C 383.420 258.464,383.600 257.834,383.600 257.200 C 383.600 256.566,383.780 255.936,384.000 255.800 C 384.220 255.664,384.400 254.674,384.400 253.600 C 384.400 252.526,384.580 251.536,384.800 251.400 C 385.020 251.264,385.200 250.544,385.200 249.800 C 385.200 249.056,385.380 248.336,385.600 248.200 C 385.820 248.064,386.000 247.164,386.000 246.200 C 386.000 245.236,386.180 244.336,386.400 244.200 C 386.620 244.064,386.800 243.254,386.800 242.400 C 386.800 241.546,386.980 240.736,387.200 240.600 C 387.420 240.464,387.600 239.384,387.600 238.200 C 387.600 237.016,387.780 235.936,388.000 235.800 C 388.220 235.664,388.400 234.314,388.400 232.800 C 388.400 231.286,388.580 229.936,388.800 229.800 C 389.034 229.655,389.200 227.337,389.200 224.200 C 389.200 221.063,389.366 218.745,389.600 218.600 C 390.147 218.262,390.147 188.538,389.600 188.200 C 389.364 188.054,389.200 185.670,389.200 182.400 C 389.200 179.130,389.036 176.746,388.800 176.600 C 388.580 176.464,388.400 175.204,388.400 173.800 C 388.400 172.396,388.220 171.136,388.000 171.000 C 387.780 170.864,387.600 169.694,387.600 168.400 C 387.600 167.106,387.420 165.936,387.200 165.800 C 386.980 165.664,386.800 164.764,386.800 163.800 C 386.800 162.836,386.620 161.936,386.400 161.800 C 386.180 161.664,386.000 160.764,386.000 159.800 C 386.000 158.836,385.820 157.936,385.600 157.800 C 385.380 157.664,385.200 156.944,385.200 156.200 C 385.200 155.456,385.020 154.736,384.800 154.600 C 384.580 154.464,384.400 153.384,384.400 152.200 C 384.400 151.016,384.220 149.936,384.000 149.800 C 383.780 149.664,383.600 148.944,383.600 148.200 C 383.600 147.456,383.420 146.736,383.200 146.600 C 382.980 146.464,382.800 145.834,382.800 145.200 C 382.800 144.566,382.620 143.936,382.400 143.800 C 382.180 143.664,382.000 143.124,382.000 142.600 C 382.000 142.076,381.820 141.536,381.600 141.400 C 381.380 141.264,381.200 140.634,381.200 140.000 C 381.200 139.366,381.020 138.736,380.800 138.600 C 380.580 138.464,380.400 137.924,380.400 137.400 C 380.400 136.876,380.220 136.336,380.000 136.200 C 379.780 136.064,379.600 135.524,379.600 135.000 C 379.600 134.476,379.420 133.936,379.200 133.800 C 378.980 133.664,378.800 133.034,378.800 132.400 C 378.800 131.766,378.620 131.136,378.400 131.000 C 378.180 130.864,378.000 130.324,378.000 129.800 C 378.000 129.276,377.820 128.736,377.600 128.600 C 377.380 128.464,377.200 128.001,377.200 127.571 C 377.200 127.141,377.041 126.477,376.847 126.095 C 376.652 125.713,376.318 124.950,376.103 124.400 C 375.889 123.850,375.328 122.618,374.857 121.662 C 374.386 120.706,374.000 119.592,374.000 119.186 C 374.000 118.780,373.820 118.336,373.600 118.200 C 373.380 118.064,373.200 117.632,373.200 117.241 C 373.200 116.849,372.300 114.761,371.200 112.600 C 370.100 110.439,369.200 108.431,369.200 108.136 C 369.200 107.841,369.020 107.600,368.800 107.600 C 368.580 107.600,368.400 107.240,368.400 106.800 C 368.400 106.360,368.264 106.000,368.098 106.000 C 367.931 106.000,367.543 105.415,367.235 104.700 C 366.927 103.985,366.364 102.950,365.984 102.400 C 364.748 100.609,363.600 98.389,363.600 97.788 C 363.600 97.465,363.462 97.200,363.294 97.200 C 363.126 97.200,362.544 96.480,362.000 95.600 C 361.456 94.720,360.874 94.000,360.706 94.000 C 360.538 94.000,360.400 93.764,360.400 93.475 C 360.400 93.187,360.040 92.564,359.600 92.092 C 359.160 91.620,358.800 91.123,358.800 90.989 C 358.800 90.574,356.309 87.097,355.122 85.856 C 354.505 85.210,354.000 84.438,354.000 84.141 C 354.000 83.843,353.820 83.600,353.600 83.600 C 353.380 83.600,353.198 83.375,353.196 83.100 C 353.194 82.825,352.294 81.657,351.196 80.505 C 350.098 79.352,349.200 78.253,349.200 78.063 C 349.200 77.054,328.239 56.152,326.712 55.639 C 326.449 55.550,325.553 54.848,324.721 54.079 C 323.137 52.613,320.627 50.800,320.182 50.800 C 320.038 50.800,319.444 50.295,318.860 49.679 C 317.625 48.372,314.251 46.000,313.628 46.000 C 313.393 46.000,313.200 45.859,313.200 45.686 C 313.200 45.514,312.705 45.080,312.100 44.721 C 311.495 44.363,310.550 43.677,310.000 43.195 C 309.450 42.714,308.325 42.025,307.500 41.666 C 306.675 41.306,306.000 40.874,306.000 40.706 C 306.000 40.538,305.775 40.400,305.500 40.399 C 305.225 40.399,304.370 39.859,303.600 39.200 C 302.830 38.541,301.990 38.001,301.733 38.001 C 301.477 38.000,301.207 37.859,301.133 37.688 C 301.060 37.516,299.830 36.797,298.400 36.091 C 295.891 34.852,294.419 34.019,294.000 33.600 C 293.538 33.138,290.279 31.600,289.762 31.600 C 289.453 31.600,289.200 31.420,289.200 31.200 C 289.200 30.980,288.975 30.801,288.700 30.803 C 288.425 30.805,286.670 30.064,284.800 29.155 C 282.930 28.247,280.950 27.325,280.400 27.105 C 279.850 26.886,279.087 26.548,278.705 26.353 C 278.323 26.159,277.755 26.000,277.443 26.000 C 277.131 26.000,276.094 25.614,275.138 25.143 C 274.182 24.672,273.040 24.156,272.600 23.997 C 271.438 23.576,269.507 22.761,268.705 22.353 C 268.323 22.159,267.659 22.000,267.229 22.000 C 266.799 22.000,266.336 21.820,266.200 21.600 C 266.064 21.380,265.434 21.200,264.800 21.200 C 264.166 21.200,263.536 21.020,263.400 20.800 C 263.264 20.580,262.743 20.400,262.243 20.400 C 261.743 20.400,261.209 20.275,261.056 20.123 C 260.904 19.971,260.383 19.786,259.898 19.712 C 259.414 19.638,258.842 19.402,258.629 19.189 C 258.415 18.975,257.837 18.800,257.344 18.800 C 256.851 18.800,256.336 18.620,256.200 18.400 C 256.064 18.180,255.524 18.000,255.000 18.000 C 254.476 18.000,253.936 17.820,253.800 17.600 C 253.664 17.380,253.034 17.200,252.400 17.200 C 251.766 17.200,251.136 17.020,251.000 16.800 C 250.864 16.580,250.234 16.400,249.600 16.400 C 248.966 16.400,248.336 16.220,248.200 16.000 C 248.064 15.780,247.164 15.600,246.200 15.600 C 245.236 15.600,244.336 15.420,244.200 15.200 C 244.064 14.980,243.434 14.800,242.800 14.800 C 242.166 14.800,241.536 14.620,241.400 14.400 C 241.264 14.180,240.544 14.000,239.800 14.000 C 239.056 14.000,238.336 13.820,238.200 13.600 C 238.064 13.380,237.344 13.200,236.600 13.200 C 235.856 13.200,235.136 13.020,235.000 12.800 C 234.864 12.580,234.054 12.400,233.200 12.400 C 232.346 12.400,231.536 12.220,231.400 12.000 C 231.264 11.780,230.274 11.600,229.200 11.600 C 228.126 11.600,227.136 11.420,227.000 11.200 C 226.864 10.980,225.424 10.800,223.800 10.800 C 222.176 10.800,220.754 10.650,220.641 10.466 C 220.528 10.283,219.315 10.092,217.947 10.043 C 216.579 9.993,215.143 9.784,214.756 9.576 C 214.369 9.369,212.701 9.200,211.050 9.200 C 209.398 9.200,207.936 9.020,207.800 8.800 C 207.471 8.267,179.625 8.267,178.800 8.800 M207.057 10.197 C 223.164 11.930,230.318 13.128,240.000 15.711 C 242.090 16.268,244.880 16.935,246.200 17.193 C 247.520 17.451,251.840 18.731,255.800 20.038 C 259.760 21.346,264.170 22.784,265.600 23.235 C 267.030 23.686,268.740 24.286,269.400 24.569 C 270.060 24.851,271.770 25.543,273.200 26.105 C 280.018 28.785,282.130 29.677,286.400 31.680 C 288.930 32.867,291.720 34.294,292.600 34.851 C 293.480 35.407,295.550 36.545,297.200 37.379 C 298.850 38.213,301.190 39.561,302.400 40.374 C 303.610 41.186,307.006 43.439,309.947 45.379 C 312.888 47.319,315.858 49.393,316.547 49.987 C 317.236 50.581,318.887 51.798,320.216 52.692 C 321.545 53.585,322.895 54.632,323.216 55.019 C 323.537 55.405,324.750 56.425,325.913 57.283 C 330.708 60.826,344.742 75.065,349.681 81.400 C 355.542 88.917,360.743 96.311,362.790 100.038 C 363.346 101.048,364.742 103.568,365.894 105.638 C 367.045 107.707,367.990 109.600,367.994 109.845 C 367.997 110.089,368.732 111.619,369.627 113.245 C 370.522 114.870,371.763 117.640,372.385 119.400 C 373.007 121.160,374.254 124.435,375.157 126.677 C 376.060 128.920,377.070 131.800,377.403 133.077 C 377.735 134.355,378.605 137.200,379.336 139.400 C 380.066 141.600,380.979 144.450,381.363 145.734 C 381.997 147.850,384.643 160.157,385.635 165.600 C 385.855 166.810,386.205 168.700,386.412 169.800 C 388.067 178.596,389.291 205.792,388.466 215.453 C 388.224 218.284,387.824 223.210,387.576 226.400 C 387.329 229.590,386.850 233.640,386.512 235.400 C 386.174 237.160,385.752 239.590,385.574 240.800 C 385.396 242.010,384.894 244.530,384.457 246.400 C 384.021 248.270,383.298 251.420,382.850 253.400 C 381.602 258.915,381.178 260.348,378.052 269.600 C 376.751 273.450,375.037 278.017,374.243 279.750 C 373.449 281.482,372.796 283.102,372.791 283.350 C 372.783 283.743,370.155 289.104,368.257 292.600 C 367.898 293.260,367.604 293.991,367.602 294.224 C 367.601 294.456,366.955 295.716,366.167 297.024 C 365.380 298.331,364.236 300.300,363.626 301.400 C 361.053 306.043,360.681 306.647,359.815 307.600 C 359.315 308.150,358.390 309.500,357.759 310.600 C 355.818 313.986,348.618 323.571,345.200 327.320 C 335.575 337.877,325.050 347.300,315.177 354.200 C 307.543 359.535,299.893 364.013,291.250 368.205 C 285.726 370.884,284.454 371.449,277.000 374.525 C 270.632 377.153,256.055 381.900,251.400 382.861 C 245.892 383.997,244.977 384.199,242.000 384.931 C 233.996 386.900,229.269 387.594,215.000 388.899 C 205.211 389.795,179.316 389.498,171.600 388.402 C 170.170 388.199,167.020 387.830,164.600 387.583 C 159.887 387.102,155.455 386.257,147.800 384.379 C 145.160 383.731,141.830 382.947,140.400 382.636 C 136.974 381.892,130.644 379.938,127.800 378.747 C 127.360 378.563,125.200 377.807,123.000 377.067 C 120.800 376.327,117.920 375.226,116.600 374.620 C 115.280 374.014,113.120 373.105,111.800 372.600 C 109.172 371.593,99.198 366.673,97.600 365.594 C 97.050 365.223,95.160 364.140,93.400 363.189 C 91.640 362.237,89.030 360.622,87.600 359.599 C 86.170 358.576,84.422 357.393,83.715 356.970 C 82.326 356.138,74.412 350.296,70.736 347.388 C 67.906 345.150,54.599 331.958,52.994 329.800 C 52.340 328.920,51.579 328.056,51.302 327.880 C 50.713 327.505,45.344 320.319,41.380 314.600 C 35.041 305.455,26.144 287.860,22.404 277.071 C 21.780 275.272,20.513 271.730,19.588 269.200 C 18.663 266.670,17.583 263.250,17.189 261.600 C 16.796 259.950,16.094 257.250,15.631 255.600 C 15.168 253.950,14.619 251.790,14.410 250.800 C 14.201 249.810,13.834 248.370,13.594 247.600 C 13.181 246.278,12.021 239.194,11.203 233.000 C 10.999 231.460,10.521 228.040,10.141 225.400 C 9.580 221.514,9.444 217.555,9.424 204.600 C 9.398 187.352,9.250 189.266,12.023 171.000 C 13.547 160.958,17.384 147.125,21.399 137.200 C 21.889 135.990,22.515 134.280,22.791 133.400 C 23.530 131.043,28.662 120.209,31.696 114.600 C 33.435 111.386,33.818 110.743,36.270 106.932 C 37.001 105.795,37.604 104.715,37.609 104.532 C 37.614 104.349,37.980 103.750,38.423 103.200 C 38.867 102.650,40.671 100.130,42.434 97.600 C 44.197 95.070,46.396 92.076,47.320 90.947 C 48.244 89.818,49.782 87.928,50.738 86.747 C 56.675 79.415,70.971 65.193,74.666 62.943 C 75.439 62.472,76.641 61.558,77.336 60.911 C 78.031 60.265,79.590 59.033,80.800 58.174 C 82.010 57.315,83.180 56.467,83.400 56.291 C 86.474 53.823,93.271 49.600,94.167 49.600 C 94.710 49.600,96.137 48.523,100.465 44.846 C 101.859 43.661,103.798 42.041,104.773 41.246 C 105.748 40.451,107.160 39.271,107.911 38.625 C 109.382 37.359,110.367 36.667,115.844 33.054 C 117.800 31.763,119.873 30.379,120.452 29.977 C 124.061 27.473,136.739 21.008,142.111 18.932 C 143.040 18.573,143.971 18.127,144.180 17.940 C 144.389 17.753,144.860 17.600,145.227 17.600 C 145.594 17.600,147.583 17.039,149.647 16.354 C 158.010 13.579,161.275 12.851,173.800 10.971 C 183.570 9.505,197.597 9.178,207.057 10.197 M389.600 39.600 C 389.600 39.820,389.960 40.000,390.400 40.000 C 390.840 40.000,391.200 39.820,391.200 39.600 C 391.200 39.380,390.840 39.200,390.400 39.200 C 389.960 39.200,389.600 39.380,389.600 39.600 M122.397 54.778 C 120.554 55.331,118.925 56.350,118.259 57.365 C 117.355 58.746,117.246 155.645,118.145 159.000 C 120.402 167.420,129.043 175.160,136.224 175.194 C 139.296 175.209,138.976 165.783,139.200 262.668 C 139.382 341.375,139.458 349.143,140.054 350.621 C 145.917 365.142,163.401 365.361,170.422 351.000 L 171.400 349.000 171.600 262.800 C 171.710 215.390,171.941 176.382,172.114 176.115 C 172.287 175.849,173.097 175.521,173.914 175.387 C 180.802 174.257,186.611 169.985,190.231 163.388 L 192.200 159.800 192.200 108.932 L 192.200 58.065 191.200 56.994 C 188.201 53.784,183.764 54.156,182.018 57.763 C 181.213 59.425,181.200 60.021,181.200 94.046 C 181.200 120.419,181.086 128.754,180.720 129.120 C 180.177 129.663,172.524 129.794,171.706 129.274 C 171.322 129.030,171.189 121.094,171.106 93.512 L 171.000 58.064 170.000 56.994 C 167.701 54.534,165.003 54.130,162.694 55.900 C 160.055 57.923,160.211 55.645,160.081 93.988 C 159.991 120.716,159.849 129.048,159.481 129.282 C 158.910 129.645,151.944 129.707,151.033 129.357 C 150.463 129.138,150.400 125.699,150.400 94.544 C 150.400 56.859,150.501 58.530,148.094 56.268 C 145.763 54.078,141.662 54.673,139.761 57.477 C 139.031 58.554,138.992 60.044,138.800 94.000 L 138.600 129.400 134.360 129.513 C 131.164 129.598,130.008 129.492,129.668 129.082 C 129.343 128.690,129.187 118.784,129.109 93.538 L 129.000 58.537 127.861 57.044 C 126.393 55.119,124.238 54.225,122.397 54.778 M250.200 55.184 C 238.773 57.660,231.812 64.905,229.846 76.370 C 229.060 80.956,228.837 237.773,229.614 239.226 C 230.002 239.951,230.530 240.000,237.914 240.006 C 242.251 240.009,246.021 240.153,246.292 240.324 C 246.675 240.568,246.812 252.441,246.915 294.418 C 247.058 352.864,246.938 349.841,249.268 353.400 C 257.301 365.670,275.379 362.294,278.753 347.894 C 279.410 345.090,279.388 80.018,278.730 76.624 C 275.838 61.695,263.376 52.330,250.200 55.184 " stroke="none" fill="#edeceb" fill-rule="evenodd"></path><path id="path1" d="M181.200 10.040 C 169.318 11.198,158.905 13.282,149.647 16.354 C 147.583 17.039,145.594 17.600,145.227 17.600 C 144.860 17.600,144.389 17.753,144.180 17.940 C 143.971 18.127,143.040 18.573,142.111 18.932 C 136.739 21.008,124.061 27.473,120.452 29.977 C 119.873 30.379,117.800 31.763,115.844 33.054 C 110.367 36.667,109.382 37.359,107.911 38.625 C 107.160 39.271,105.748 40.451,104.773 41.246 C 103.798 42.041,101.859 43.661,100.465 44.846 C 96.137 48.523,94.710 49.600,94.167 49.600 C 93.271 49.600,86.474 53.823,83.400 56.291 C 83.180 56.467,82.010 57.315,80.800 58.174 C 79.590 59.033,78.031 60.265,77.336 60.911 C 76.641 61.558,75.439 62.472,74.666 62.943 C 70.971 65.193,56.675 79.415,50.738 86.747 C 49.782 87.928,48.244 89.818,47.320 90.947 C 46.396 92.076,44.197 95.070,42.434 97.600 C 40.671 100.130,38.867 102.650,38.423 103.200 C 37.980 103.750,37.614 104.349,37.609 104.532 C 37.604 104.715,37.001 105.795,36.270 106.932 C 33.818 110.743,33.435 111.386,31.696 114.600 C 28.662 120.209,23.530 131.043,22.791 133.400 C 22.515 134.280,21.889 135.990,21.399 137.200 C 17.384 147.125,13.547 160.958,12.023 171.000 C 9.250 189.266,9.398 187.352,9.424 204.600 C 9.444 217.555,9.580 221.514,10.141 225.400 C 10.521 228.040,10.999 231.460,11.203 233.000 C 12.021 239.194,13.181 246.278,13.594 247.600 C 13.834 248.370,14.201 249.810,14.410 250.800 C 14.619 251.790,15.168 253.950,15.631 255.600 C 16.094 257.250,16.796 259.950,17.189 261.600 C 17.583 263.250,18.663 266.670,19.588 269.200 C 20.513 271.730,21.780 275.272,22.404 277.071 C 26.144 287.860,35.041 305.455,41.380 314.600 C 45.344 320.319,50.713 327.505,51.302 327.880 C 51.579 328.056,52.340 328.920,52.994 329.800 C 54.599 331.958,67.906 345.150,70.736 347.388 C 74.412 350.296,82.326 356.138,83.715 356.970 C 84.422 357.393,86.170 358.576,87.600 359.599 C 89.030 360.622,91.640 362.237,93.400 363.189 C 95.160 364.140,97.050 365.223,97.600 365.594 C 99.198 366.673,109.172 371.593,111.800 372.600 C 113.120 373.105,115.280 374.014,116.600 374.620 C 117.920 375.226,120.800 376.327,123.000 377.067 C 125.200 377.807,127.360 378.563,127.800 378.747 C 130.644 379.938,136.974 381.892,140.400 382.636 C 141.830 382.947,145.160 383.731,147.800 384.379 C 155.455 386.257,159.887 387.102,164.600 387.583 C 167.020 387.830,170.170 388.199,171.600 388.402 C 179.316 389.498,205.211 389.795,215.000 388.899 C 229.269 387.594,233.996 386.900,242.000 384.931 C 244.977 384.199,245.892 383.997,251.400 382.861 C 256.055 381.900,270.632 377.153,277.000 374.525 C 284.454 371.449,285.726 370.884,291.250 368.205 C 296.994 365.419,300.019 363.794,304.295 361.200 C 318.343 352.675,325.342 347.236,336.510 336.167 C 340.079 332.628,343.990 328.647,345.200 327.320 C 348.618 323.571,355.818 313.986,357.759 310.600 C 358.390 309.500,359.315 308.150,359.815 307.600 C 360.681 306.647,361.053 306.043,363.626 301.400 C 364.236 300.300,365.380 298.331,366.167 297.024 C 366.955 295.716,367.601 294.456,367.602 294.224 C 367.604 293.991,367.898 293.260,368.257 292.600 C 370.155 289.104,372.783 283.743,372.791 283.350 C 372.796 283.102,373.449 281.482,374.243 279.750 C 376.789 274.192,381.203 260.678,382.850 253.400 C 383.298 251.420,384.021 248.270,384.457 246.400 C 384.894 244.530,385.396 242.010,385.574 240.800 C 385.752 239.590,386.174 237.160,386.512 235.400 C 386.850 233.640,387.329 229.590,387.576 226.400 C 387.824 223.210,388.224 218.284,388.466 215.453 C 389.291 205.792,388.067 178.596,386.412 169.800 C 386.205 168.700,385.855 166.810,385.635 165.600 C 384.643 160.157,381.997 147.850,381.363 145.734 C 380.979 144.450,380.066 141.600,379.336 139.400 C 378.605 137.200,377.735 134.355,377.403 133.077 C 377.070 131.800,376.060 128.920,375.157 126.677 C 374.254 124.435,373.007 121.160,372.385 119.400 C 371.763 117.640,370.522 114.870,369.627 113.245 C 368.732 111.619,367.997 110.089,367.994 109.845 C 367.990 109.600,367.045 107.707,365.894 105.638 C 364.742 103.568,363.346 101.048,362.790 100.038 C 360.743 96.311,355.542 88.917,349.681 81.400 C 344.742 75.065,330.708 60.826,325.913 57.283 C 324.750 56.425,323.537 55.405,323.216 55.019 C 322.895 54.632,321.545 53.585,320.216 52.692 C 318.887 51.798,317.236 50.581,316.547 49.987 C 315.858 49.393,312.888 47.319,309.947 45.379 C 307.006 43.439,303.610 41.186,302.400 40.374 C 301.190 39.561,298.850 38.213,297.200 37.379 C 295.550 36.545,293.480 35.407,292.600 34.851 C 291.720 34.294,288.930 32.867,286.400 31.680 C 282.130 29.677,280.018 28.785,273.200 26.105 C 271.770 25.543,270.060 24.851,269.400 24.569 C 268.740 24.286,267.030 23.686,265.600 23.235 C 264.170 22.784,259.760 21.346,255.800 20.038 C 251.840 18.731,247.520 17.451,246.200 17.193 C 244.880 16.935,242.090 16.268,240.000 15.711 C 230.318 13.128,223.164 11.930,207.057 10.197 C 201.102 9.556,187.041 9.470,181.200 10.040 M125.861 55.229 C 126.334 55.406,127.234 56.222,127.861 57.044 L 129.000 58.537 129.109 93.538 C 129.187 118.784,129.343 128.690,129.668 129.082 C 130.008 129.492,131.164 129.598,134.360 129.513 L 138.600 129.400 138.800 94.000 C 138.992 60.044,139.031 58.554,139.761 57.477 C 141.662 54.673,145.763 54.078,148.094 56.268 C 150.501 58.530,150.400 56.859,150.400 94.544 C 150.400 125.699,150.463 129.138,151.033 129.357 C 151.944 129.707,158.910 129.645,159.481 129.282 C 159.849 129.048,159.991 120.716,160.081 93.988 C 160.211 55.645,160.055 57.923,162.694 55.900 C 165.003 54.130,167.701 54.534,170.000 56.994 L 171.000 58.064 171.106 93.512 C 171.189 121.094,171.322 129.030,171.706 129.274 C 172.524 129.794,180.177 129.663,180.720 129.120 C 181.086 128.754,181.200 120.419,181.200 94.046 C 181.200 60.021,181.213 59.425,182.018 57.763 C 183.764 54.156,188.201 53.784,191.200 56.994 L 192.200 58.065 192.200 108.932 L 192.200 159.800 190.231 163.388 C 186.611 169.985,180.802 174.257,173.914 175.387 C 173.097 175.521,172.287 175.849,172.114 176.115 C 171.941 176.382,171.710 215.390,171.600 262.800 L 171.400 349.000 170.422 351.000 C 163.401 365.361,145.917 365.142,140.054 350.621 C 139.458 349.143,139.382 341.375,139.200 262.668 C 138.976 165.783,139.296 175.209,136.224 175.194 C 130.788 175.168,123.119 169.789,120.158 163.925 C 117.459 158.579,117.610 161.907,117.605 107.686 C 117.599 53.061,117.399 57.145,120.157 55.719 C 122.670 54.419,123.504 54.348,125.861 55.229 M261.600 56.002 C 271.466 59.328,276.570 65.471,278.730 76.624 C 279.388 80.018,279.410 345.090,278.753 347.894 C 275.379 362.294,257.301 365.670,249.268 353.400 C 246.938 349.841,247.058 352.864,246.915 294.418 C 246.812 252.441,246.675 240.568,246.292 240.324 C 246.021 240.153,242.251 240.009,237.914 240.006 C 230.530 240.000,230.002 239.951,229.614 239.226 C 228.837 237.773,229.060 80.956,229.846 76.370 C 230.856 70.480,232.783 66.443,236.389 62.662 C 240.394 58.463,243.948 56.539,250.200 55.184 C 252.855 54.609,258.715 55.029,261.600 56.002 " stroke="none" fill="#54d4fb" fill-rule="evenodd"></path></g></svg>